<svg width="16" height="16" viewBox="0 0 16 16" fill="none" xmlns="http://www.w3.org/2000/svg">
    <path d="M14.5 1.5L12.5 3.5L13.5 4.5L15.5 2.5L14.5 1.5Z" fill="currentColor"/>
    <path d="M5.5 10.5L4.5 11.5L1.5 14.5L2.5 15.5L5.5 12.5L6.5 11.5L5.5 10.5Z" fill="currentColor"/>
    <path d="M7.85355 8.14645C7.65829 7.95118 7.34171 7.95118 7.14645 8.14645C6.95118 8.34171 6.95118 8.65829 7.14645 8.85355L9.14645 10.8536C9.34171 11.0488 9.65829 11.0488 9.85355 10.8536C10.0488 10.6583 10.0488 10.3417 9.85355 10.1464L7.85355 8.14645Z" fill="currentColor"/>
    <path d="M10.3536 5.64645C10.1583 5.45118 9.84171 5.45118 9.64645 5.64645C9.45118 5.84171 9.45118 6.15829 9.64645 6.35355L11.6464 8.35355C11.8417 8.54882 12.1583 8.54882 12.3536 8.35355C12.5488 8.15829 12.5488 7.84171 12.3536 7.64645L10.3536 5.64645Z" fill="currentColor"/>
    <path d="M5.35355 10.6464C5.15829 10.4512 4.84171 10.4512 4.64645 10.6464C4.45118 10.8417 4.45118 11.1583 4.64645 11.3536L6.64645 13.3536C6.84171 13.5488 7.15829 13.5488 7.35355 13.3536C7.54882 13.1583 7.54882 12.8417 7.35355 12.6464L5.35355 10.6464Z" fill="currentColor"/>
    <path d="M8 5C8.55228 5 9 4.55228 9 4C9 3.44772 8.55228 3 8 3C7.44772 3 7 3.44772 7 4C7 4.55228 7.44772 5 8 5Z" fill="currentColor"/>
    <path d="M4 8C4.55228 8 5 7.55228 5 7C5 6.44772 4.55228 6 4 6C3.44772 6 3 6.44772 3 7C3 7.55228 3.44772 8 4 8Z" fill="currentColor"/>
    <path d="M12 9C12.5523 9 13 8.55228 13 8C13 7.44772 12.5523 7 12 7C11.4477 7 11 7.44772 11 8C11 8.55228 11.4477 9 12 9Z" fill="currentColor"/>
</svg>
